<?xml version="1.0" encoding="UTF-8"?>
<svg version="1.1" viewBox="0 0 2048 1156" width="1280" height="1280" xmlns="http://www.w3.org/2000/svg">
<path transform="translate(1828 1e3)" d="m0 0 4 2 7 9 11 13 13 16 11 13 11 14 12 14 11 14 12 14v2l4-1 15-15 8-7 10-10 8-7 19-19 8-7 12-12 8-7 12-12 4-2 15 16 4 4-2 4-18 18-8 7-17 17-8 7-11 11-8 7-13 13-8 7-13 13-8 7-12 12-4-1-11-14-12-14-18-22-14-17-11-13-8-10-14-17-9-11-12-14-1-4 13-11z" fill="#1A1A1A"/>
<path transform="translate(1696,350)" d="m0 0 10 1 13 7 12 8 17 12 14 11 15 13 5 8 1 3v7l-5 9-6 5-6 2h-8l-8-4-10-9-14-11-18-13-18-11-8-7-3-8 1-10 6-8 6-4z" fill="#1A1A1A"/>
<path transform="translate(14)" d="m0 0h18l8 8 3 6v12l-2 36-1 36-2 8-7 8-7 3h-8l-9-4-7-9v-45l3-39 2-10 7-8z" fill="#1A1A1A"/>
<path transform="translate(1924,948)" d="m0 0h10l8 4 6 8 1 4-1 33-3 52-3 8-5 5-9 4-10-1-6-4-5-6-2-5v-13l3-52 1-20 3-8 4-5z" fill="#1A1A1A"/>
<path transform="translate(1285,353)" d="m0 0 10 2 6 4 5 8v12l-5 8-5 4-30 13-45 21-8 1-9-3-5-5-4-8v-9l3-6 4-5 17-9 33-15 25-11z" fill="#1A1A1A"/>
<path transform="translate(831,582)" d="m0 0h10l7 4 5 6 2 4v11l-5 8-5 4-20 8-43 15-17 5h-9l-8-4-5-6-2-6v-8l4-8 6-5 43-15 33-12z" fill="#1A1A1A"/>
<path transform="translate(1816,464)" d="m0 0h12l6 3 7 7 15 23 12 20 13 24 2 6v8l-5 9-9 6h-11l-8-4-6-9-16-29-9-14-14-21-3-8 1-8 6-9z" fill="#1A1A1A"/>
<path transform="translate(264,582)" d="m0 0h9l9 4 32 15 36 14 8 7 3 8-1 9-6 9-7 4-7 1-14-4-28-11-26-12-15-8-7-8-1-3v-10l4-8 6-5z" fill="#1A1A1A"/>
<path transform="translate(1893,614)" d="m0 0h7l10 4 5 7 5 15 8 31 7 32v13l-5 8-5 4-7 2-9-1-7-4-5-8-6-26-6-25-7-24-1-5v-8l4-8 6-5z" fill="#1A1A1A"/>
<path transform="translate(135,478)" d="m0 0 8 1 8 5 15 16 7 8 15 14 21 18 4 7v11l-5 8-6 5-9 2-8-2-11-8-11-10-8-7-14-13-7-8-7-7-8-11-2-5v-8l4-8 7-6z" fill="#1A1A1A"/>
<path transform="translate(1130,429)" d="m0 0h11l8 4 5 7 1 3v11l-6 9-10 6-25 14-26 15-16 8-7 1-9-3-7-8-2-6v-8l5-9 9-6 21-12 23-13 18-10z" fill="#1A1A1A"/>
<path transform="translate(53,332)" d="m0 0 9 1 6 4 5 6 14 36 14 30 5 11v9l-6 10-7 4-10 1-8-3-7-8-13-26-13-31-7-21v-7l4-8 7-6z" fill="#1A1A1A"/>
<path transform="translate(1532,305)" d="m0 0h17l28 3 24 4 20 5 8 4 5 6 2 6-1 11-6 8-9 4-12-1-30-6-22-3-23-2-6-3-5-5-3-5-1-8 3-9 4-5z" fill="#1A1A1A"/>
<path transform="translate(426,635)" d="m0 0 48 6 34 3 8 2 6 5 4 8v9l-4 8-6 5-4 2h-22l-40-4-25-4-10-4-4-5-3-7v-7l3-8 8-7z" fill="#1A1A1A"/>
<path transform="translate(20,167)" d="m0 0 9 1 8 5 4 6 3 21 5 41 3 18v12l-4 7-6 5-7 2-10-1-6-4-4-5-4-15-5-35-3-30v-13l3-6 8-7z" fill="#1A1A1A"/>
<path transform="translate(983,511)" d="m0 0h10l8 4 5 6 2 5v9l-4 8-6 5-27 14-15 8-23 11-10 4h-11l-6-3-6-7-2-6v-7l5-10 10-6 52-26 15-8z" fill="#1A1A1A"/>
<path transform="translate(1440,309)" d="m0 0h15l8 5 4 6 2 10-3 8-6 7-9 3-39 7-34 8-11 1-8-4-5-6-2-5v-11l6-9 7-4 27-7 41-8z" fill="#1A1A1A"/>
<path transform="translate(668,630)" d="m0 0h12l6 4 6 7 2 5-1 10-6 9-9 4-33 6-37 5-16 1-7-3-7-8-2-6 1-10 5-8 8-4 50-7z" fill="#1A1A1A"/>
<path transform="translate(1925,779)" d="m0 0 9 1 6 4 5 6 2 5 1 9 2 44v35l-3 6-4 5-7 3h-11l-6-3-6-7-2-5-2-50-1-16v-23l4-7 6-5z" fill="#1A1A1A"/>
</svg>
