<?xml version="1.0" encoding="UTF-8"?>
<svg version="1.1" viewBox="0 0 2048 1162" width="1280" height="1280" xmlns="http://www.w3.org/2000/svg">
<path transform="translate(214,1006)" d="m0 0 5 2 13 11 6 5-2 4-14 17-9 11-28 34-11 13-8 10-18 22-11 13-10 13-4-1-13-12-11-11-8-7-13-13-8-7-14-14-8-7-14-14-2-1v-2l-4-2-16-16-8-7-4-4v-8l9-9 7-8 4 2 7 7 8 7 14 14 8 7 12 12 8 7 14 14 8 7 14 14 8 7h3l12-14 27-33 11-13 8-10 28-34z" fill="#1A1A1A"/>
<path transform="translate(114,783)" d="m0 0 10 1 8 5 4 6 1 3v16l-2 37-1 33-2 7-6 7-7 3h-11l-6-3-6-7-2-5v-33l2-41 2-16 6-8 6-4z" fill="#1A1A1A"/>
<path transform="translate(2024,169)" d="m0 0h9l10 5 5 6v30l-7 46-3 17-5 8-5 4-8 2-8-1-7-4-5-8-1-3v-9l7-49 3-29 4-8 6-5z" fill="#1A1A1A"/>
<path transform="translate(113,952)" d="m0 0 9 1 7 4 4 5 2 5 1 10 3 62v17l-3 6-4 5-10 4-9-1-7-4-5-7-2-9-3-52-1-29 3-7 5-6 6-3z" fill="#1A1A1A"/>
<path transform="translate(1056,513)" d="m0 0 10 1 16 8 19 10 16 8 21 10 8 6 4 8v10l-6 10-7 4-8 1-13-4-15-8-21-10-19-10-11-6-7-6-3-7v-10l4-8 7-5z" fill="#1A1A1A"/>
<path transform="translate(907,431)" d="m0 0h10l16 8 25 14 21 12 14 9 6 7 2 6-1 9-6 9-8 4-5 1-10-3-15-8-21-12-23-13-10-6-6-5-4-8v-9l4-8 8-6z" fill="#1A1A1A"/>
<path transform="translate(144,617)" d="m0 0h7l8 3 7 8 2 10-6 23-7 27-7 32-6 9-5 3-4 1h-9l-8-4-5-6-2-5v-9l5-25 11-43 5-13 6-8z" fill="#1A1A1A"/>
<path transform="translate(754,356)" d="m0 0h11l21 8 26 12 23 11 10 6 6 7 1 3v10l-4 8-6 5-6 2h-8l-18-8-27-13-26-11-11-6-4-6-2-6 1-9 4-6 7-6z" fill="#1A1A1A"/>
<path transform="translate(1993,334)" d="m0 0 10 1 9 6 4 8v10l-9 25-14 32-10 20-6 7-7 3-6 1-9-3-7-6-3-7v-9l8-16 14-31 11-29 6-8 5-3z" fill="#1A1A1A"/>
<path transform="translate(1778,585)" d="m0 0h8l10 5 5 8 1 3v7l-3 8-8 7-27 13-26 11-22 8-10 1-7-3-6-5-4-10 1-8 4-7 6-5 36-14 20-9 19-9z" fill="#1A1A1A"/>
<path transform="translate(219,466)" d="m0 0h7l9 4 6 7 1 3v12l-7 12-8 11-15 25-8 14-6 11-4 5-8 3h-10l-6-3-6-7-2-5v-9l5-12 13-23 15-24 9-13 6-7 5-3z" fill="#1A1A1A"/>
<path transform="translate(1910,481)" d="m0 0h7l8 3 5 5 4 7v9l-4 8-9 11-32 32-11 9-10 8-5 2h-11l-8-4-4-5-2-4-1-8 3-9 8-8 11-9 16-15 14-14 7-8 7-7z" fill="#1A1A1A"/>
<path transform="translate(345,352)" d="m0 0 10 2 6 4 5 9v10l-4 8-8 6-16 10-17 12-16 13-12 10-5 2h-11l-8-4-6-9-1-8 3-9 10-10 11-9 18-14 12-8 14-9 10-5z" fill="#1A1A1A"/>
<path transform="translate(1370,633)" d="m0 0h8l50 8 30 4 7 3 5 5 3 6v10l-4 8-7 6-4 1h-13l-24-3-38-6-17-4-8-7-3-9 1-8 4-8 5-4z" fill="#1A1A1A"/>
<path transform="translate(1208,585)" d="m0 0h9l21 7 24 9 33 11 6 4 5 6 2 10-3 9-4 5-8 4h-11l-25-8-40-14-14-6-7-6-3-8v-7l5-10 7-5z" fill="#1A1A1A"/>
<path transform="translate(591,311)" d="m0 0h13l36 6 31 7 12 4 6 4 4 5 2 6v7l-4 8-6 6-10 2-25-5-27-6-33-6-6-4-5-6-1-3v-11l4-7 7-6z" fill="#1A1A1A"/>
<path transform="translate(495,307)" d="m0 0h18l6 3 7 8 2 6-1 9-4 6-5 5-7 2-37 4-31 6-9 2h-10l-6-3-6-7-2-4v-11l3-6 5-5 9-4 29-6 29-4z" fill="#1A1A1A"/>
<path transform="translate(1616,639)" d="m0 0h12l7 4 5 6 2 6v7l-3 7-4 5-9 4-33 5-31 3-23 1-8-4-6-8-2-9 4-11 7-6 8-2 46-4z" fill="#1A1A1A"/>
<path transform="translate(2021)" d="m0 0h15v2l5 2 7 9v98l-6 5-6 2h-10l-6-3-6-6-2-6-3-62-1-15v-11l3-6z" fill="#1A1A1A"/>
</svg>
