<svg width="350" height="345" viewBox="0 0 350 345" fill="none" xmlns="http://www.w3.org/2000/svg">
<g clip-path="url(#clip0_48_215)">
<path d="M184.722 180.47C182.901 182.252 180.437 183.252 177.868 183.252C175.3 183.252 172.836 182.252 171.014 180.47L141.847 151.777C137.685 157.866 135.39 165.004 135.236 172.34C135.236 180.077 137.568 187.641 141.938 194.074C146.307 200.507 152.517 205.521 159.783 208.482C167.049 211.442 175.044 212.217 182.758 210.708C190.471 209.198 197.556 205.473 203.118 200.002C208.679 194.531 212.466 187.56 214 179.972C215.534 172.384 214.747 164.518 211.737 157.37C208.728 150.222 203.631 144.113 197.092 139.814C190.553 135.516 182.865 133.222 175 133.222C168.161 133.263 161.454 135.077 155.556 138.482L184.722 167.176C186.475 168.959 187.454 171.343 187.454 173.823C187.454 176.303 186.475 178.687 184.722 180.47Z" fill="#173E1F"/>
<path d="M175 19.3084C161.032 19.3558 147.134 21.2539 133.68 24.9515L149.236 62.1574C173.727 56.527 199.416 58.9079 222.407 68.9389C245.397 78.9699 264.436 96.1037 276.633 117.741C288.831 139.379 293.523 164.34 289.997 188.838C286.471 213.336 274.92 236.035 257.096 253.491C239.272 270.947 216.147 282.208 191.229 285.565C166.311 288.923 140.96 284.195 119.021 272.097C97.0817 259.999 79.7516 241.193 69.6593 218.53C59.567 195.867 57.2631 170.584 63.0972 146.516L25.3749 131.022C16.5768 161.888 17.8539 194.694 29.0261 224.808C40.1983 254.922 60.7013 280.824 87.6416 298.859C114.582 316.893 146.599 326.15 179.174 325.321C211.749 324.493 243.237 313.621 269.194 294.241C295.151 274.861 314.266 247.951 323.841 217.309C333.417 186.667 332.969 153.841 322.561 123.463C312.153 93.0847 292.311 66.689 265.835 48.0011C239.359 29.3132 207.586 19.2768 175 19.3084Z" fill="#173E1F"/>
<path d="M77.778 152.638C73.523 173.096 76.0733 194.358 85.0519 213.281C94.0305 232.203 108.961 247.78 127.634 257.709C146.308 267.638 167.734 271.391 188.744 268.413C209.754 265.436 229.232 255.886 244.298 241.175C259.363 226.465 269.217 207.376 272.402 186.73C275.587 166.084 271.933 144.978 261.981 126.533C252.03 108.088 236.308 93.2829 217.142 84.3077C197.976 75.3326 176.383 72.6636 155.556 76.6955L171.986 116.006H175C186.303 116.006 197.351 119.302 206.75 125.477C216.149 131.652 223.476 140.43 227.806 150.701C232.136 160.972 233.273 172.275 231.075 183.181C228.878 194.088 223.443 204.109 215.457 211.978C207.472 219.847 197.295 225.211 186.212 227.392C175.129 229.573 163.638 228.472 153.191 224.23C142.743 219.989 133.808 212.795 127.515 203.559C121.222 194.323 117.853 183.459 117.834 172.34V168.993L77.778 152.638Z" fill="#173E1F"/>
<path d="M79.7224 127.77C80.6199 128.671 81.843 129.187 83.1252 129.205H118.611L141.459 151.681C144.977 146.203 149.82 141.668 155.556 138.482L131.542 114.953V81.5733C131.524 80.3119 130.999 79.1087 130.084 78.2257L75.7363 24.7602C75.0569 24.1048 74.1968 23.6601 73.2629 23.481C72.3289 23.3019 71.362 23.3965 70.4822 23.7529C69.6023 24.1093 68.8481 24.712 68.3131 25.4861C67.7781 26.2602 67.4858 27.1718 67.4724 28.1078V66.3658H29.1669C28.2154 66.3789 27.2888 66.6665 26.5019 67.1928C25.715 67.7192 25.1025 68.4611 24.7402 69.3267C24.3779 70.1923 24.2818 71.1435 24.4638 72.0623C24.6458 72.9811 25.0979 73.8272 25.7641 74.4956L79.7224 127.77Z" fill="#173E1F"/>
</g>
<defs>
<clipPath id="clip0_48_215">
<rect width="350" height="344.322" fill="white" transform="translate(0 0.179443)"/>
</clipPath>
</defs>
</svg>
