<svg width="350" height="350" viewBox="0 0 350 350" fill="none" xmlns="http://www.w3.org/2000/svg">
<g clip-path="url(#clip0_46_170)">
<path d="M306.375 129.792L281.583 144.375L223.25 43.75L248.042 29.1666L306.375 129.792ZM129.917 115.208L173.667 191.042L262.625 140L218.875 64.1666L129.917 115.208ZM153.25 185.208L124.083 134.167L61.375 170.625L90.5417 221.667L153.25 185.208ZM17.625 212.917L32.2083 237.708L70.125 215.833L55.5417 191.042L17.625 212.917ZM163.458 204.167L159.083 198.333L96.375 234.792L100.75 240.625C103.667 245 108.042 249.375 112.417 252.292L89.0833 320.833H118.25L138.667 258.125H140.125L162 320.833H191.167L163.458 239.167C170.75 228.958 170.75 215.833 163.458 204.167Z" fill="#173E1F"/>
</g>
<defs>
<clipPath id="clip0_46_170">
<rect width="350" height="350" fill="white"/>
</clipPath>
</defs>
</svg>
