<svg width="350" height="350" viewBox="0 0 350 350" fill="none" xmlns="http://www.w3.org/2000/svg">
<g clip-path="url(#clip0_46_160)">
<path d="M343.844 218.875L289.156 109.5H304.25C307.151 109.5 309.933 108.348 311.984 106.296C314.035 104.245 315.188 101.463 315.188 98.5625C315.188 95.6617 314.035 92.8797 311.984 90.8285C309.933 88.7773 307.151 87.625 304.25 87.625H286.969C275.218 74.8261 261.059 64.4705 245.301 57.1509C229.544 49.8314 212.497 45.6916 195.137 44.9687L194.875 43.875C194.875 38.0734 192.57 32.5094 188.468 28.407C184.366 24.3047 178.802 22 173 22C167.198 22 161.634 24.3047 157.532 28.407C153.43 32.5094 151.125 38.0734 151.125 43.875V44.9687C115.771 46.4342 82.4067 61.7296 58.2219 87.5594L41.75 87.625C38.8492 87.625 36.0672 88.7773 34.016 90.8285C31.9648 92.8797 30.8125 95.6617 30.8125 98.5625C30.8125 101.463 31.9648 104.245 34.016 106.296C36.0672 108.348 38.8492 109.5 41.75 109.5H56.8438L2.15625 218.875H-2C-2 242.938 27.3125 262.625 63.625 262.625C99.9375 262.625 129.25 242.938 129.25 218.875H125.094L69.3125 107.531C70.6849 106.706 71.8696 105.604 72.7906 104.294C82.4665 92.9279 94.4354 83.7354 107.913 77.3191C121.39 70.9028 136.071 67.4076 150.994 67.0625L151.125 306.375H129.25V328.25H85.5V350.125H260.5V328.25H216.75V306.375H194.875V67.0625C209.627 67.3559 224.143 70.8142 237.443 77.2036C250.742 83.5929 262.514 92.7641 271.962 104.097C272.989 105.799 274.445 107.202 276.184 108.166L220.906 218.875H216.75C216.75 242.938 246.062 262.625 282.375 262.625C318.688 262.625 348 242.938 348 218.875H343.844ZM107.375 218.875H19.875L63.625 132.688L107.375 218.875ZM238.625 218.875L282.375 132.688L326.125 218.875H238.625Z" fill="#173E1F"/>
</g>
<defs>
<clipPath id="clip0_46_160">
<rect width="350" height="350" fill="white"/>
</clipPath>
</defs>
</svg>
