<svg width="1422" height="186" viewBox="0 0 1422 186" fill="none" xmlns="http://www.w3.org/2000/svg">
<path fill-rule="evenodd" clip-rule="evenodd" d="M0.5 65.4428L60.375 45.2338C120.25 25.7217 240 -14.6963 359.75 5.51268C479.5 25.7217 599.25 105.861 719 105.861C838.75 105.861 958.5 25.7217 1078.25 20.1468C1198 15.2688 1317.75 85.6518 1377.62 120.495L1437.5 156.035V186H1377.62C1317.75 186 1198 186 1078.25 186C958.5 186 838.75 186 719 186C599.25 186 479.5 186 359.75 186C240 186 120.25 186 60.375 186H0.5V65.4428Z" fill="#7ED957"/>
</svg>
