<?xml version="1.0" encoding="UTF-8"?>
<svg version="1.1" viewBox="0 0 1000 944" width="1280" height="1280" xmlns="http://www.w3.org/2000/svg">
<path transform="translate(735,24)" d="m0 0h37l-1 5-11 20-8 16-14 27-12 22-15 28-13 23-15 29-13 23-8 16-12 22-15 28-14 26-12 22-16 30-12 22-14 26-17 32-7 11-14 26-12 22-14 27-7 12-7 14-12 22-9 16-7 14-12 22-10 19-11 19-8 16-12 22-10 18-8 1h-29l-2-2 13-24 7-12 7-14 13-23 14-27 12-22 26-48 10-19 6-10 6-12 12-22 12-23 12-22 14-26 17-32 15-28 13-24 28-52 12-22 14-26 12-22 16-30 12-22 9-16 7-14 12-22 18-34 15-28 8-13z" fill="#7ED957"/>
<path transform="translate(663,24)" d="m0 0h37l-2 6-12 23-12 22-14 26-8 14-7 14-12 22-13 24-15 28-42 78-12 22-16 30-12 22-11 20-7 14-9 16-6 12-10 17-7 14-13 23-7 14-12 22-14 26-7 12-8 16-12 21-8 16-15 28-12 22-14 27-13 23-11 21-2 2h-37l1-5 6-10 7-14 12-22 16-30 12-22 16-30 12-22 16-30 12-22 16-30 12-22 16-30 12-22 16-30 12-22 16-30 12-22 16-30 12-22 16-30 12-22 16-30 12-22 9-16 7-14 12-22 16-30 12-22 12-21z" fill="#7ED957"/>
<path transform="translate(599,24)" d="m0 0h32l-2 6-10 19-12 22-17 32-6 10-7 14-12 22-9 16-7 14-12 22-14 26-15 28-13 24-15 28-8 14-8 16-12 22-28 52-13 24-30 56-13 24-18 34-14 26-15 28-14 26-12 22-15 28-13 24-9 16-2 2h-38l5-10 10-18 15-28 12-23 13-23 15-29 13-23 13-25 12-22 15-29 10-19 15-28 28-52 13-23 7-13 9-16 14-27 8-14 14-24 11-19 9-16 15-28 9-16 28-48 26-48 14-24 15-27z" fill="#7ED957"/>
<path transform="translate(217,24)" d="m0 0h38l1 3-1 558-12 22-14 26-11 20h-1z" fill="#FFFFFF"/>
<path transform="translate(286,24)" d="m0 0h38l1 1v430l-5 8-7 14-12 22-12 23-3 2z" fill="#FFFFFF"/>
<path transform="translate(355,24)" d="m0 0h38l1 2v300l-17 32-13 23-7 13h-2z" fill="#FFFFFF"/>
<path transform="translate(604,408)" d="m0 0 3 1 8 16 14 27 10 18 17 32 13 24 12 22 17 32 12 22 16 30 12 22 30 56 5 8v3h-37l-4-5-17-32-14-26-13-24-17-32-12-22-17-32-6-10-7-14-12-22-17-32-14-26 1-4 13-25z" fill="#FFFFFF"/>
<path transform="translate(569,472)" d="m0 0 3 1 8 16 14 26 12 22 16 30 12 22 18 34 12 22 30 56 10 18v2h-38l-8-14-45-84-9-16-7-14-12-22-18-34-7-12-8-16v-6l5-8 10-19z" fill="#FFFFFF"/>
<path transform="translate(534,537)" d="m0 0 3 1 17 32 13 23 12 23 12 22 8 14 7 14 12 22 14 26 3 5v2h-38l-9-16-15-28-16-30-12-22-16-30-12-22v-5l8-14 6-10z" fill="#FFFFFF"/>
<path transform="translate(572,814)" d="m0 0h38l13 2 12 6 8 7 6 10 3 8v18l-3 10-7 11-7 6-6 2 9 11 12 12-1 3-28-1-7-8-8-8-3-1h-8l-1 17-1 1h-20l-1-1zm22 20v48h12l10-2 9-6 4-8 1-5v-8l-3-9-5-6-6-3-4-1z" fill="#FFFFFF"/>
<path transform="translate(19,814)" d="m0 0h20l1 1 1 48 28-28 7-8h2v-2l8-7 5-4h27l-2 4-46 46h-2l3 5 48 48v2l-7 1h-19l-5-3v-2l-4-2-31-31-5 2-7 8-1 27h-22v-104z" fill="#FFFFFF"/>
<path transform="translate(882,814)" d="m0 0h20l1 1v39h48v-38l1-2 21 1v104l-21 1-1-6v-41h-48v46h-22v-104z" fill="#FFFFFF"/>
<path transform="translate(208,814)" d="m0 0h35l15 2 12 6 9 8 6 10 3 11v13l-3 12-5 9-8 9-10 6-12 3-20 1v15l-17 1-5-1zm22 20v50h15l9-3 8-7 3-7v-15l-3-8-4-5-7-4-3-1z" fill="#FFFFFF"/>
<path transform="translate(686,814)" d="m0 0h55l1 1v19h-34v20h39l1 7v12h-40v27h43l1 19-15 1h-50l-1-1z" fill="#FCFDFC"/>
<path transform="translate(809,812)" d="m0 0 11 1 10 4 9 8-5 5-10 8-4-1-7-3-7 1-3 3-1 6 3 5 9 3 14 3 10 6 7 8 4 11v12l-4 11-6 8-6 5-9 4-3 1h-17l-11-4-9-6-4-5 11-9 4-3 5 1 4 3 11 2 8-4 2-4v-8l-3-6-9-4-15-4-10-7-6-9-2-8v-7l4-11 7-8 10-6z" fill="#FFFFFF"/>
<path transform="translate(480,814)" d="m0 0h48l7 1v18l-1 1h-33v20h39l1 18-1 1h-39v46l-21 1-1-1v-104z" fill="#FFFFFF"/>
<path transform="translate(373,814)" d="m0 0h72l3 1v18l-1 1h-26v85l-21 1-1-1-1-85h-25l-1-3z" fill="#FFFFFF"/>
<path transform="translate(320,814)" d="m0 0h20l2 1v104l-21 1-1-1z" fill="#FFFFFF"/>
<path transform="translate(149,814)" d="m0 0h13l8 1v104h-22v-104z" fill="#FFFFFF"/>
</svg>
